<svg width="28" height="24" viewBox="0 0 28 24" fill="none" xmlns="http://www.w3.org/2000/svg">
    <defs>
        <symbol id="west">
            <path d="M26 13.5C26.8284 13.5 27.5 12.8284 27.5 12C27.5 11.1716 26.8284 10.5 26 10.5L26 13.5ZM0.93934 10.9393C0.353553 11.5251 0.353553 12.4749 0.93934 13.0607L10.4853 22.6066C11.0711 23.1924 12.0208 23.1924 12.6066 22.6066C13.1924 22.0208 13.1924 21.0711 12.6066 20.4853L4.12132 12L12.6066 3.51472C13.1924 2.92893 13.1924 1.97919 12.6066 1.3934C12.0208 0.807613 11.0711 0.807613 10.4853 1.3934L0.93934 10.9393ZM26 10.5L2 10.5L2 13.5L26 13.5L26 10.5Z" fill="black"/>
            
        </symbol>
        <path id="east" d="M2 10.5C1.17157 10.5 0.5 11.1716 0.5 12C0.5 12.8284 1.17157 13.5 2 13.5V10.5ZM27.0607 13.0607C27.6464 12.4749 27.6464 11.5251 27.0607 10.9393L17.5147 1.3934C16.9289 0.807612 15.9792 0.807612 15.3934 1.3934C14.8076 1.97918 14.8076 2.92893 15.3934 3.51472L23.8787 12L15.3934 20.4853C14.8076 21.0711 14.8076 22.0208 15.3934 22.6066C15.9792 23.1924 16.9289 23.1924 17.5147 22.6066L27.0607 13.0607ZM2 13.5H26V10.5H2V13.5Z" fill="black"/>
        <path id="south" d="M13.5 2C13.5 1.17157 12.8284 0.5 12 0.5C11.1716 0.5 10.5 1.17157 10.5 2L13.5 2ZM10.9393 27.0607C11.5251 27.6464 12.4749 27.6464 13.0607 27.0607L22.6066 17.5147C23.1924 16.9289 23.1924 15.9792 22.6066 15.3934C22.0208 14.8076 21.0711 14.8076 20.4853 15.3934L12 23.8787L3.51472 15.3934C2.92893 14.8076 1.97918 14.8076 1.3934 15.3934C0.807611 15.9792 0.807611 16.9289 1.3934 17.5147L10.9393 27.0607ZM10.5 2L10.5 26L13.5 26L13.5 2L10.5 2Z" fill="black"/>
        <path id="north" d="M10.5 26C10.5 26.8284 11.1716 27.5 12 27.5C12.8284 27.5 13.5 26.8284 13.5 26H10.5ZM13.0607 0.93934C12.4749 0.353553 11.5251 0.353553 10.9393 0.93934L1.3934 10.4853C0.807612 11.0711 0.807612 12.0208 1.3934 12.6066C1.97918 13.1924 2.92893 13.1924 3.51472 12.6066L12 4.12132L20.4853 12.6066C21.0711 13.1924 22.0208 13.1924 22.6066 12.6066C23.1924 12.0208 23.1924 11.0711 22.6066 10.4853L13.0607 0.93934ZM13.5 26L13.5 2H10.5L10.5 26H13.5Z" fill="black"/>
    </defs>
</svg>
